<svg width="472" height="180" viewBox="-5 -5 472 180" fill="none" stroke="white" stroke-width="10" xmlns="http://www.w3.org/2000/svg">
<path d="M445.974 58.0419C438.945 52.8119 430.064 51.9157 423.35 55.74C420.242 57.514 417.054 60.5096 415.211 64.4566C416.525 63.984 417.892 63.6525 419.318 63.4684C425.861 62.6151 432.371 65.0766 436.766 70.0181C444.81 79.0724 445.846 95.1 439.132 106.518C433.263 116.493 422.453 122.392 410.864 121.974C401.389 121.624 391.643 117.211 382.686 109.225C374.739 102.135 368.298 93.0866 362.877 85.1557C359.929 80.8403 357.035 76.482 354.14 72.1114C345.563 59.1898 336.703 45.8263 326.694 34.2491C311.681 16.8772 296.049 6.08575 280.235 2.18167C263.273 -2.00478 245.681 2.71571 234.316 14.4832C232.43 16.4352 229.573 16.4352 227.688 14.4832C216.333 2.70957 198.725 -2.00478 181.768 2.18167C165.954 6.09189 150.322 16.8772 135.309 34.2491C125.306 45.8202 116.446 59.1776 107.874 72.0991C104.974 76.4758 102.074 80.8403 99.1205 85.1618C93.7103 93.0866 87.2694 102.141 79.3118 109.231C70.3607 117.217 60.6139 121.631 51.1341 121.98C39.6195 122.441 28.7404 116.499 22.871 106.524C16.1577 95.1061 17.1938 79.0785 25.2369 70.0243C29.627 65.0828 36.1373 62.6335 42.6851 63.4745C44.1057 63.6586 45.4783 63.9901 46.7868 64.4689C44.9495 60.5158 41.7558 57.5263 38.6528 55.7461C31.9342 51.9157 23.0526 52.8181 16.0295 58.0481C9.5085 62.8913 4.41879 71.4177 2.06353 81.448C-3.133 103.571 5.82874 130.531 23.8644 147.025C43.358 164.852 68.8973 169.136 86.8902 169.591C122.027 170.487 155.716 158.689 181.699 136.375C202.704 118.334 218.539 93.0682 226.288 65.2117C226.945 62.8607 228.847 61.2585 230.999 61.2585C233.151 61.2585 235.053 62.8545 235.71 65.2117C243.459 93.0682 259.294 118.334 280.299 136.375C306.282 158.689 339.982 170.505 375.108 169.591C393.101 169.136 418.64 164.852 438.134 147.025C456.169 130.525 465.136 103.565 459.934 81.448C457.579 71.4116 452.489 62.8852 445.974 58.0419Z" fill="#111010"/>
</svg>
